<svg width="275px" height="51px" viewBox="0 0 275 51" version="1.1" xmlns="http://www.w3.org/2000/svg" xmlns:xlink="http://www.w3.org/1999/xlink">
    <g id="Page-1" stroke="none" stroke-width="1" fill="none" fill-rule="evenodd">
        <path id="Line" d="M257.203552,41.9127897 C249.031336,44.5443353 243.263937,36.4484802 239.828956,18.8442584 C238.226897,10.6338241 231.033591,4.70845166 222.668316,4.70845166 C213.01202,4.70845166 205.184044,12.5364269 205.184044,22.1927238 L205.184044,23.6927238 L202.184044,23.6927238 L202.184044,22.1927238 C202.184044,10.8795727 211.355165,1.70845166 222.668316,1.70845166 C232.468928,1.70845166 240.896482,8.65051598 242.773427,18.2697225 C245.92392,34.4159485 250.522441,40.9019527 256.495142,38.9704676 L254.836289,32.0805527 C254.689771,31.4719991 255.064324,30.8598921 255.672877,30.7133734 C255.84394,30.6721876 256.022241,30.6713951 256.193663,30.7110586 L274.420202,34.9283223 C275.030034,35.0694255 275.410014,35.6781788 275.26891,36.2880108 C275.21363,36.5269264 275.08235,36.7414676 274.894777,36.8994319 L260.585042,48.9503047 C260.106261,49.3535085 259.39127,49.2922403 258.988067,48.8134586 C258.874728,48.6788749 258.79428,48.5197513 258.753094,48.3486892 L257.203552,41.9127897 Z" fill="#F3153C" fill-rule="nonzero"></path>
        <text id="YOUR-SAAS" font-family="HelveticaNeue-Bold, Helvetica Neue" font-size="28" font-weight="bold" letter-spacing="2.66666667" fill="#565657">
            <tspan x="1" y="37">YOUR SAAS</tspan>
        </text>
    </g>
</svg>